<svg width="92" height="21" viewBox="0 0 92 21" fill="none" xmlns="http://www.w3.org/2000/svg">
<g opacity="0.6">
<rect x="0.5" y="10" width="36" height="1" fill="white"/>
<rect x="55.5" y="10" width="36" height="1" fill="white"/>
<circle cx="46" cy="10.5" r="10" stroke="white"/>
<path d="M43.546 7C43.9912 7 44.4038 7.13953 44.7404 7.37611H44.742C45.0879 7.64152 45.5253 7.79924 46 7.79924C46.4654 7.79924 46.8935 7.6491 47.2363 7.39431C47.576 7.14711 47.9979 7 48.4555 7C49.5848 7 50.5 7.89479 50.5 9.00038C50.5 9.34161 50.4131 9.66313 50.258 9.9437C50.2285 9.99829 50.196 10.0529 50.1603 10.1045L47.7932 13.9627C47.4457 14.5799 46.7725 15 46 15C45.2275 15 44.5558 14.5799 44.2084 13.9627L41.804 10.0483C41.7978 10.0377 41.7916 10.0286 41.787 10.0195L41.7808 10.0104C41.6024 9.71318 41.5 9.36891 41.5 9.00038C41.5 7.89479 42.4168 7 43.546 7Z" fill="white"/>
</g>
</svg>
