<svg width="96" height="96" viewBox="0 0 96 96" fill="none" xmlns="http://www.w3.org/2000/svg">
<g style="mix-blend-mode:difference">
<path d="M48.9024 78.6236C48.8064 78.758 48.6528 78.854 48.48 78.9116L48.9792 79.8524H48.5184L48.0768 78.9884C48.0384 78.9884 48 78.9884 47.9424 78.9884H47.3088V79.8524H46.9248V77.2988H47.9424C48.1536 77.2988 48.3456 77.3372 48.5184 77.3948C48.6912 77.4524 48.8256 77.5484 48.9216 77.6828C49.0176 77.8172 49.0752 77.9708 49.0752 78.1436C49.056 78.3356 48.9984 78.4892 48.9024 78.6236ZM47.2896 78.6236H47.9232C48.1728 78.6236 48.3648 78.5852 48.4992 78.5084C48.6144 78.4316 48.672 78.3164 48.672 78.1244C48.672 77.9516 48.6144 77.8364 48.4992 77.7596C48.384 77.6828 48.192 77.6636 47.9424 77.6636H47.3088L47.2896 78.6236Z" fill="white"/>
<path d="M47.8079 81.8493C46.0031 81.8493 44.5439 80.3901 44.5439 78.5853C44.5439 76.7805 46.0031 75.3213 47.8079 75.3213C49.6127 75.3213 51.0719 76.7805 51.0719 78.5853C51.0911 80.3709 49.6127 81.8493 47.8079 81.8493ZM47.8079 75.6477C46.1951 75.6477 44.8703 76.9725 44.8703 78.5853C44.8703 80.1981 46.1951 81.5229 47.8079 81.5229C49.4207 81.5229 50.7455 80.1981 50.7455 78.5853C50.7455 76.9725 49.4399 75.6477 47.8079 75.6477Z" fill="white"/>
<path fill-rule="evenodd" clip-rule="evenodd" d="M58.1376 71.3854C60.768 73.2862 64.0128 74.3998 67.5072 74.3998C76.3776 74.3998 83.5776 67.1998 83.5776 58.3294C83.5776 55.3726 82.7712 52.6078 81.3696 50.227L81.3312 50.1502C81.312 50.1118 81.288 50.0734 81.264 50.035C81.24 49.9966 81.216 49.9582 81.1968 49.9198L62.3232 18.4894C59.5968 13.5358 54.3168 10.1758 48.2496 10.1758C42.1824 10.1758 36.9216 13.555 34.1568 18.5278L15.5904 49.4974C15.3216 49.9198 15.0528 50.3422 14.8224 50.7838C13.6128 53.0494 12.9216 55.6222 12.9216 58.3678C12.9216 67.2382 20.1024 74.419 28.9728 74.419C32.544 74.419 35.8656 73.2286 38.5344 71.251C41.2224 69.1966 44.5824 67.987 48.2304 67.987C51.9744 67.987 55.392 69.2542 58.1184 71.3854H58.1376ZM28.512 41.7598L28.4928 41.7214C27.648 40.3198 27.168 38.6494 27.168 36.8446C27.168 31.5454 31.4496 27.2638 36.7488 27.2638C38.8224 27.2638 40.7616 27.9358 42.336 29.0686C43.968 30.3358 46.0032 31.1038 48.2304 31.1038C50.4 31.1038 52.3968 30.3934 54.0096 29.1646C55.6032 27.9934 57.5808 27.283 59.712 27.283C65.0112 27.283 69.2928 31.5646 69.2928 36.8638C69.2928 38.515 68.8896 40.051 68.16 41.395C68.0256 41.6638 67.872 41.9134 67.6992 42.163L56.6208 60.6526C54.9888 63.6094 51.84 65.6254 48.2304 65.6254C44.6208 65.6254 41.472 63.6094 39.84 60.6526L28.5888 41.8942C28.5792 41.875 28.5648 41.851 28.5504 41.827C28.536 41.803 28.5216 41.779 28.512 41.7598Z" fill="white"/>
</g>
</svg>
