<svg width="600" height="177" viewBox="0 0 600 177" fill="none" xmlns="http://www.w3.org/2000/svg">
<path d="M121.364 9.60644C121.658 9.23979 121.804 8.72646 121.804 8.21314C121.804 7.69982 121.658 7.25983 121.364 6.89317C121.071 6.52651 120.704 6.23319 120.191 6.08652C119.678 5.93986 119.164 5.7932 118.578 5.7932H115.644V13.1997H116.744V10.7064H118.578C118.724 10.7064 118.871 10.7064 119.018 10.7064L120.338 13.1997H121.658L120.191 10.4864C120.631 10.2664 121.071 9.9731 121.364 9.60644ZM120.191 9.31312C119.824 9.53311 119.311 9.60644 118.578 9.60644H116.744V6.81984H118.578C119.311 6.81984 119.898 6.89317 120.191 7.11317C120.558 7.33316 120.704 7.62649 120.704 8.13981C120.704 8.72647 120.558 9.09312 120.191 9.31312ZM118.211 0C113.005 0 108.751 4.25323 108.751 9.45978C108.751 14.6663 113.005 18.9196 118.211 18.9196C123.418 18.9196 127.671 14.6663 127.671 9.45978C127.671 4.25323 123.418 0 118.211 0ZM118.211 17.8929C113.518 17.8929 109.778 14.0797 109.778 9.45978C109.778 4.83988 113.591 1.02664 118.211 1.02664C122.831 1.02664 126.644 4.83988 126.644 9.45978C126.644 14.0797 122.904 17.8929 118.211 17.8929Z" fill="white"/>
<path d="M117.257 69.1521L117.184 69.0054C117.111 68.8588 117.037 68.7121 116.964 68.6388L84.6248 14.8133C79.9315 6.30687 70.9118 0.513672 60.4987 0.513672C50.0856 0.513672 41.0658 6.30687 36.3725 14.74L4.54656 67.7588C4.10657 68.4921 3.66659 69.2254 3.2266 69.9587C1.17331 73.8453 0 78.2452 0 82.9384C0 98.1181 12.3197 110.438 27.4994 110.438C33.6593 110.438 39.3058 108.458 43.8524 105.011C48.4723 101.491 54.1921 99.438 60.4253 99.438C66.8052 99.438 72.6717 101.638 77.3649 105.305C81.9115 108.531 87.4114 110.511 93.4246 110.511C108.604 110.511 120.924 98.1914 120.924 83.0118C120.997 77.9519 119.604 73.1853 117.257 69.1521ZM545.001 0.513672C514.642 0.513672 490.002 25.1531 490.002 55.5124C490.002 85.8717 514.642 110.511 545.001 110.511C575.361 110.511 600 85.8717 600 55.5124C600 25.1531 575.361 0.513672 545.001 0.513672ZM451.797 0.513672C436.617 0.513672 424.297 12.8334 424.297 28.013V83.0118C424.297 98.1914 436.617 110.511 451.797 110.511C466.976 110.511 479.296 98.1914 479.296 83.0118V28.013C479.296 12.8334 466.976 0.513672 451.797 0.513672ZM413.297 28.013C413.297 12.8334 400.978 0.513672 385.798 0.513672C376.192 0.513672 367.758 5.50022 362.845 12.9801C362.772 13.0534 362.699 13.2 362.625 13.2734C361.672 14.5933 360.059 15.4733 358.299 15.4733C356.539 15.4733 354.925 14.5933 353.972 13.2734C353.899 13.2 353.825 13.1267 353.752 12.9801C348.839 5.50022 340.406 0.513672 330.799 0.513672C321.193 0.513672 312.76 5.50022 307.846 12.9801C307.773 13.0534 307.7 13.2 307.626 13.2734C306.673 14.5933 305.06 15.4733 303.3 15.4733C301.54 15.4733 299.927 14.5933 298.973 13.2734C298.9 13.2 298.827 13.1267 298.753 12.9801C293.84 5.50022 285.407 0.513672 275.801 0.513672C260.621 0.513672 248.301 12.8334 248.301 28.013V83.0118C248.301 98.1914 260.621 110.511 275.801 110.511C285.407 110.511 293.913 105.525 298.827 98.0448C299.78 96.5781 301.467 95.6248 303.3 95.6248C305.207 95.6248 306.893 96.6515 307.846 98.1914C312.76 105.598 321.193 110.511 330.799 110.511C340.112 110.511 348.326 105.891 353.312 98.7781H353.385C354.192 96.9448 356.099 95.6248 358.299 95.6248C360.279 95.6248 361.965 96.6515 362.845 98.1914C367.758 105.598 376.192 110.511 385.725 110.511C400.904 110.511 413.224 98.1914 413.224 83.0118C413.224 82.4985 413.224 81.9118 413.151 81.3985V29.6263C413.224 29.113 413.297 28.5264 413.297 28.013ZM182.303 0.513672C151.943 0.513672 127.304 25.1531 127.304 55.5124C127.304 85.8717 151.943 110.511 182.303 110.511H209.069C209.289 110.511 209.509 110.438 209.802 110.438C212.809 110.438 215.302 112.931 215.302 115.938C215.302 118.944 212.809 121.438 209.802 121.438C209.729 121.438 209.655 121.438 209.582 121.438C194.476 121.584 182.303 133.831 182.303 148.937C182.303 164.117 194.622 176.436 209.802 176.436C224.322 176.436 236.275 165.143 237.228 150.844H237.301V110.511V103.178V55.5124C237.301 25.1531 212.662 0.513672 182.303 0.513672Z" fill="white"/>
</svg>
