<svg width="24" height="22" viewBox="0 0 24 22" fill="none" xmlns="http://www.w3.org/2000/svg">
<path fill-rule="evenodd" clip-rule="evenodd" d="M15.296 20.6962C16.1728 21.3298 17.2544 21.701 18.4192 21.701C21.376 21.701 23.776 19.301 23.776 16.3442C23.776 15.3586 23.5072 14.437 23.04 13.6434L23.0272 13.6178C23.0208 13.605 23.0128 13.5922 23.0048 13.5794C22.9968 13.5666 22.9888 13.5538 22.9824 13.541L16.6912 3.06417C15.7824 1.41297 14.0224 0.292969 12 0.292969C9.9776 0.292969 8.224 1.41937 7.3024 3.07697L1.1136 13.4002C1.024 13.541 0.934399 13.6818 0.857599 13.829C0.454399 14.5842 0.223999 15.4418 0.223999 16.357C0.223999 19.3138 2.6176 21.7074 5.5744 21.7074C6.7648 21.7074 7.872 21.3106 8.7616 20.6514C9.6576 19.9666 10.7776 19.5634 11.9936 19.5634C13.2416 19.5634 14.3808 19.9858 15.2896 20.6962H15.296ZM5.42102 10.821L5.41462 10.8082C5.13302 10.341 4.97302 9.78421 4.97302 9.18261C4.97302 7.41621 6.40022 5.98901 8.16662 5.98901C8.85782 5.98901 9.50422 6.21301 10.029 6.59061C10.573 7.01301 11.2514 7.26901 11.9938 7.26901C12.717 7.26901 13.3826 7.03221 13.9202 6.62261C14.4514 6.23221 15.1106 5.99541 15.821 5.99541C17.5874 5.99541 19.0146 7.42261 19.0146 9.18901C19.0146 9.73941 18.8802 10.2514 18.637 10.6994C18.5922 10.789 18.541 10.8722 18.4834 10.9554L14.7906 17.1186C14.2466 18.1042 13.197 18.7762 11.9938 18.7762C10.7906 18.7762 9.74102 18.1042 9.19702 17.1186L5.44662 10.8658C5.44342 10.8594 5.43862 10.8514 5.43382 10.8434C5.42902 10.8354 5.42422 10.8274 5.42102 10.821Z" fill="black"/>
</svg>
