<svg width="72" height="65" viewBox="0 0 72 65" fill="none" xmlns="http://www.w3.org/2000/svg">
<path fill-rule="evenodd" clip-rule="evenodd" d="M46.1376 61.3854C48.768 63.2862 52.0128 64.3998 55.5072 64.3998C64.3776 64.3998 71.5776 57.1998 71.5776 48.3294C71.5776 45.3726 70.7712 42.6078 69.3696 40.227L69.3312 40.1502C69.312 40.1118 69.288 40.0734 69.264 40.035C69.24 39.9966 69.216 39.9582 69.1968 39.9198L50.3232 8.48938C47.5968 3.53578 42.3168 0.175781 36.2496 0.175781C30.1824 0.175781 24.9216 3.55498 22.1568 8.52778L3.59043 39.4974C3.32163 39.9198 3.05283 40.3422 2.82243 40.7838C1.61283 43.0494 0.921631 45.6222 0.921631 48.3678C0.921631 57.2382 8.10243 64.419 16.9728 64.419C20.544 64.419 23.8656 63.2286 26.5344 61.251C29.2224 59.1966 32.5824 57.987 36.2304 57.987C39.9744 57.987 43.392 59.2542 46.1184 61.3854H46.1376ZM16.512 31.7598L16.4928 31.7214C15.648 30.3198 15.168 28.6494 15.168 26.8446C15.168 21.5454 19.4496 17.2638 24.7488 17.2638C26.8224 17.2638 28.7616 17.9358 30.336 19.0686C31.968 20.3358 34.0032 21.1038 36.2304 21.1038C38.4 21.1038 40.3968 20.3934 42.0096 19.1646C43.6032 17.9934 45.5808 17.283 47.712 17.283C53.0112 17.283 57.2928 21.5646 57.2928 26.8638C57.2928 28.515 56.8896 30.051 56.16 31.395C56.0256 31.6638 55.872 31.9134 55.6992 32.163L44.6208 50.6526C42.9888 53.6094 39.84 55.6254 36.2304 55.6254C32.6208 55.6254 29.472 53.6094 27.84 50.6526L16.5888 31.8942C16.5792 31.875 16.5648 31.851 16.5504 31.827C16.536 31.803 16.5216 31.779 16.512 31.7598Z" fill="white"/>
</svg>
